<svg id="Layer_1" data-name="Layer 1" xmlns="http://www.w3.org/2000/svg" viewBox="0 0 196.83 223.96"><defs><style>.cls-1{fill:#fff;stroke:#000;stroke-miterlimit:10;}</style></defs><path class="cls-1" d="M561,512.38c0,1,0,2-.08,3H510.8a24.7,24.7,0,0,0-1.48-5.37c-4.94-12.48-18.77-15.62-33.44-15.62H427.74v21H376.32V454.41h110c43.71,0,73.54,13.88,74.63,55.57C561,510.76,561,511.56,561,512.38Z" transform="translate(-375.82 -453.91)"/><path class="cls-1" d="M572.13,611.67c0,1.83-.14,3.61-.33,5.35-4,42.18-42.2,60.35-82.15,60.35H376.32v-65.7h51.42v25.74h55c16.75,0,32.14-4.61,36.65-20.39a32.27,32.27,0,0,0,1.06-5.35Z" transform="translate(-375.82 -453.91)"/><path class="cls-1" d="M571.51,604.41H520.17a36.4,36.4,0,0,0-1.69-6.64c-4.92-13.48-17.6-19.11-34.73-19.11h-56v25.75H376.32v-81.8h51.42v21h52.07c13.39,0,24-4.37,28.73-14.37a26.93,26.93,0,0,0,2.12-6.64h48.48a7.84,7.84,0,0,1-.27.91,40.86,40.86,0,0,1-2,5.73c-4.9,11.47-14.16,20-27.57,26.48,22.81,6.47,36.38,21.57,41.07,42C570.83,599.91,571.22,602.14,571.51,604.41Z" transform="translate(-375.82 -453.91)"/></svg>